<?xml version="1.0" encoding="UTF-8"?>
<svg width="25px" height="25px" viewBox="0 0 25 25" version="1.1" xmlns="http://www.w3.org/2000/svg" xmlns:xlink="http://www.w3.org/1999/xlink">
    <g stroke="none" stroke-width="1" fill="none" fill-rule="evenodd" opacity="0.1">
        <g transform="translate(0.000000, 2.000000)" fill="#000000">
            <path d="M20.7381748,0.213861737 C21.8162083,0.834281826 21.9535289,2.62155297 21.0692078,4.25484795 C21.1793553,4.32914815 21.2871893,4.40997013 21.3927638,4.49519082 C23.6231061,6.29554227 25,8.7697673 25,11.5004447 C25,14.2168541 23.6374572,16.6794841 21.4276549,18.4774226 C19.1589394,20.3232939 15.9971865,19.9733426 12.5,19.9733426 C9.00427775,19.9733426 5.84370822,20.3242527 3.57519525,18.4797407 C1.36371442,16.6816012 0,14.2180217 0,11.5004447 C0,8.75250463 1.3943577,6.26426964 3.6496374,4.46112758 C3.74365907,4.38595534 3.83890094,4.31427149 3.93534731,4.24591593 L4.01412311,4.38908415 C3.04776848,2.72063535 3.16230784,0.851326334 4.26995763,0.213861737 C5.37760892,-0.423600269 7.05892593,0.412176526 8.02528948,2.08062018 C8.18284524,2.35264632 8.31166816,2.63001182 8.41213869,2.90650729 C9.63099766,2.82897235 10.9458712,2.86336188 12.3400592,2.86336188 C12.8199619,2.86336188 13.296591,2.85960531 13.7676661,2.85792874 L14.4698284,2.85770346 C15.1959602,2.86061233 15.9057651,2.87571216 16.5905571,2.92523521 C16.6905955,2.64268274 16.8216892,2.35885845 16.982843,2.08062018 C17.9492065,0.412176526 19.6305235,-0.423600269 20.7381748,0.213861737 Z M15.9071898,7.88307623 L9.10111154,7.88307623 C6.34849253,7.88307623 4.11705392,10.1145148 4.11705392,12.8671339 C4.11705392,15.5473155 6.23259371,17.7333864 8.88491347,17.8465867 L9.10111154,17.8511915 L15.9071898,17.8511915 C18.6598089,17.8511915 20.8912475,15.6197529 20.8912475,12.8671339 C20.8912475,10.1145148 18.6598089,7.88307623 15.9071898,7.88307623 Z M13.8963697,14.7571536 C14.1230233,14.7571536 14.3067624,14.9408927 14.3067624,15.1675463 C14.3067624,15.3941999 14.1230233,15.577939 13.8963697,15.577939 L11.1147329,15.577939 C10.8880793,15.577939 10.7043402,15.3941999 10.7043402,15.1675463 C10.7043402,14.9408927 10.8880793,14.7571536 11.1147329,14.7571536 L13.8963697,14.7571536 Z M7.9253288,10.2428341 C8.43693067,10.2428341 8.85166593,10.9088882 8.85166593,11.7305076 C8.85166593,12.552127 8.43693067,13.2181811 7.9253288,13.2181811 C7.41372692,13.2181811 6.99899166,12.552127 6.99899166,11.7305076 C6.99899166,10.9088882 7.41372692,10.2428341 7.9253288,10.2428341 Z M16.6740684,10.2428341 C17.1856702,10.2428341 17.6004055,10.9088882 17.6004055,11.7305076 C17.6004055,12.552127 17.1856702,13.2181811 16.6740684,13.2181811 C16.1624665,13.2181811 15.7477312,12.552127 15.7477312,11.7305076 C15.7477312,10.9088882 16.1624665,10.2428341 16.6740684,10.2428341 Z" id="形状结合"></path>
        </g>
    </g>
</svg>